<svg xmlns="http://www.w3.org/2000/svg" width="500" height="500" viewBox="0 0 500 500">
<g>
<path d="M 121.69 460.25 C107.31,436.30 1.57,252.08 1.31,250.50 C1.09,249.25 24.24,208.24 62.82,141.50 L 124.67 34.50 L 250.01 34.50 L 375.35 34.50 L 437.16 141.50 C471.15,200.35 498.97,249.13 498.98,249.90 C498.99,250.67 483.86,277.55 465.35,309.62 L 431.70 367.94 L 425.60 367.36 C413.83,366.24 409.92,362.61 407.92,350.92 C406.40,342.11 405.48,174.17 406.84,155.67 C408.27,136.34 409.60,134.52 423.99,132.18 C427.06,131.68 428.59,130.90 428.81,129.74 C429.12,128.15 426.51,128.03 392.07,128.03 C355.74,128.02 355.00,128.06 355.00,130.01 C355.00,131.55 355.67,132.00 357.95,132.00 C364.52,132.00 370.92,134.11 373.45,137.12 C378.58,143.21 378.50,141.60 378.50,245.00 C378.50,346.25 378.32,350.97 374.05,360.61 C371.79,365.72 369.52,367.05 361.87,367.75 C357.02,368.19 356.00,368.60 356.00,370.13 C356.00,371.89 357.66,371.97 392.15,371.97 C412.04,371.97 428.45,372.12 428.63,372.29 C428.80,372.47 416.89,393.51 402.16,419.06 L 375.37 465.50 L 250.26 465.75 L 125.15 466.01 L 121.69 460.25 ZM 237.00 374.57 C249.89,372.58 262.98,368.71 272.00,364.23 L 279.50 360.50 L 280.15 325.00 C281.07,275.34 281.48,267.89 283.59,263.46 C285.53,259.37 291.25,256.07 296.50,256.01 C301.45,255.95 304.13,254.89 303.78,253.12 C303.50,251.66 299.65,251.49 265.30,251.40 C244.31,251.34 226.54,251.66 225.82,252.11 C223.30,253.67 226.83,255.41 233.84,256.05 C242.27,256.82 247.84,259.46 250.38,263.87 C252.96,268.34 254.22,290.63 253.81,324.18 C253.52,347.28 253.37,349.03 251.44,351.62 C248.09,356.09 244.97,357.86 236.50,360.05 C218.61,364.70 192.50,363.57 172.50,357.29 C149.90,350.19 127.45,334.11 115.26,316.29 C98.81,292.23 90.99,267.05 91.00,238.15 C91.02,194.70 107.42,162.47 137.49,146.84 C152.83,138.87 164.82,135.98 185.68,135.26 C208.35,134.48 226.75,137.26 243.75,144.05 C262.79,151.65 271.50,161.40 274.46,178.46 C275.92,186.85 276.23,187.51 278.35,186.70 C279.82,186.13 280.94,169.99 281.34,143.50 L 281.50 132.50 L 275.50 131.71 C272.20,131.27 263.65,130.00 256.50,128.87 C230.44,124.78 223.17,123.99 206.00,123.36 C166.08,121.90 132.15,130.91 108.22,149.33 C85.35,166.93 68.28,197.85 64.05,229.32 C62.52,240.75 62.77,262.12 64.55,272.35 C69.05,298.06 81.18,322.44 97.48,338.50 C118.54,359.27 148.82,372.15 185.50,375.94 C197.30,377.17 225.01,376.43 237.00,374.57 Z" fill="rgba(50,50,50,1)"/>
</g>
</svg>